#!OML:ASF H:\Pregnant\Project 1\Capture day 1\Session 1\femalepreg.ASF
:FULLY-SPECIFIED
:DEGREES
2041
root 4.21695 15.9912 3.93645 -787.818 -93.885 806.866
lowerback -12.5306 1.20397 7.61266
upperback -7.55445 0.358947 2.22802
thorax -0.896551 -0.212046 -1.90229
lowerneck -16.9539 10.9599 13.0992
upperneck 21.7958 14.996 -12.8825
head 12.0049 6.36812 -4.45144
rclavicle -9.51682e-015 2.54444e-014
rhumerus -38.4791 0.954989 -76.6855
rradius 25.8648
rwrist -10.2178
rhand -20.9298 -22.2203
rfingers 7.12502
rthumb 5.44217 -52.1304
lclavicle -9.51682e-015 2.54444e-014
lhumerus -38.7867 6.53939 68.3373
lradius 32.8043
lwrist 36.5143
lhand -17.9729 -5.89885
lfingers 7.12502
lthumb 8.29645 23.9182
rfemur -29.7131 10.3123 13.6558
rtibia 27.435
rfoot -11.3603 -17.5735
rtoes -16.0361
lfemur -26.687 -4.71427 -3.05823
ltibia 22.4877
lfoot -9.66075 5.09875
ltoes -32.7964
2042
root 4.21423 15.9759 4.0141 -792.692 -94.0784 811.684
lowerback -12.56 1.01894 7.13334
upperback -7.50778 0.165017 2.2736
thorax -0.843059 -0.286856 -1.61088
lowerneck -17.0538 10.8604 13.1122
upperneck 21.795 14.8128 -12.7996
head 11.9887 6.2936 -4.45479
rclavicle -5.81445e-015 -1.98785e-014
rhumerus -38.7925 0.543745 -76.1083
rradius 26.1182
rwrist -10.0608
rhand -20.9866 -22.0886
rfingers 7.12502
rthumb 5.38732 -52.0002
lclavicle -5.81445e-015 -1.98785e-014
lhumerus -38.2056 6.47711 68.7593
lradius 32.1845
lwrist 36.7829
lhand -18.8656 -6.10627
lfingers 7.12502
lthumb 7.43489 23.7431
rfemur -29.496 10.0536 13.6453
rtibia 27.3552
rfoot -11.274 -17.5769
rtoes -16.5635
lfemur -26.731 -4.60004 -3.18617
ltibia 22.5124
lfoot -10.2547 4.95259
ltoes -32.9345
2043
root 4.21292 15.9613 4.09243 -797.415 -94.2691 816.346
lowerback -12.5685 0.832555 6.62186
upperback -7.45593 -0.0238546 2.30199
thorax -0.791903 -0.358326 -1.3189
lowerneck -17.153 10.7435 13.1322
upperneck 21.7804 14.597 -12.7009
head 11.9613 6.20772 -4.45931
rclavicle -2.11209e-016 -3.57812e-015
rhumerus -39.1113 0.0369747 -75.4906
rradius 26.3932
rwrist -9.90391
rhand -21.043 -21.9478
rfingers 7.12502
rthumb 5.33285 -51.8607
lclavicle -2.11209e-016 -3.57812e-015
lhumerus -37.5685 6.4097 69.2043
lradius 31.4951
lwrist 37.0449
lhand -19.7832 -6.29712
lfingers 7.12502
lthumb 6.54915 23.5816
rfemur -29.2782 9.78441 13.5992
rtibia 27.2903
rfoot -11.1853 -17.594
rtoes -17.0757
lfemur -26.8077 -4.54785 -3.32257
ltibia 22.5653
lfoot -10.7812 4.75025
ltoes -33.1224
2044
root 4.21391 15.9483 4.17082 -802.129 -94.4452 821
lowerback -12.5496 0.63438 6.04929
upperback -7.40034 -0.218283 2.32252
thorax -0.74847 -0.430926 -1.0015
lowerneck -17.2483 10.6114 13.1373
upperneck 21.7414 14.3573 -12.5866
head 11.9176 6.11271 -4.45981
rclavicle 2.98177e-016 -3.18055e-015
rhumerus -39.4358 -0.471962 -74.867
rradius 26.6999
rwrist -9.81853
rhand -21.1103 -21.8225
rfingers 7.12502
rthumb 5.26781 -51.7371
lclavicle 2.98177e-016 -3.18055e-015
lhumerus -36.8812 6.37461 69.6727
lradius 30.7355
lwrist 37.2753
lhand -20.7054 -6.4748
lfingers 7.12502
lthumb 5.65877 23.4296
rfemur -29.0689 9.52389 13.4981
rtibia 27.248
rfoot -11.0952 -17.6493
rtoes -17.5511
lfemur -26.9506 -4.53385 -3.48999
ltibia 22.6783
lfoot -11.2278 4.47125
ltoes -33.2987
2045
root 4.21721 15.9374 4.24906 -806.923 -94.6044 825.729
lowerback -12.5004 0.426304 5.41059
upperback -7.33568 -0.415388 2.33173
thorax -0.707982 -0.502803 -0.658892
lowerneck -17.3581 10.4665 13.1332
upperneck 21.688 14.0941 -12.4538
head 11.8655 6.00863 -4.45533
rclavicle 3.62782e-015 9.14409e-015
rhumerus -39.7491 -1.05158 -74.2212
rradius 27.0159
rwrist -9.7647
rhand -21.2375 -21.7441
rfingers 7.12502
rthumb 5.14504 -51.6617
lclavicle 3.62782e-015 9.14409e-015
lhumerus -36.1285 6.35472 70.1708
lradius 29.905
lwrist 37.4839
lhand -21.6319 -6.6206
lfingers 7.12502
lthumb 4.76421 23.3058
rfemur -28.8692 9.25441 13.3422
rtibia 27.2361
rfoot -11.005 -17.7307
rtoes -18.0045
lfemur -27.1778 -4.53925 -3.70819
ltibia 22.881
lfoot -11.5904 4.11399
ltoes -33.4469
2046
root 4.22322 15.9289 4.32667 -811.888 -94.7411 830.63
lowerback -12.419 0.192074 4.66717
upperback -7.26271 -0.633867 2.35258
thorax -0.671771 -0.582067 -0.247427
lowerneck -17.4868 10.3176 13.0878
upperneck 21.6175 13.8295 -12.3049
head 11.806 5.9019 -4.43725
rclavicle 2.45996e-015 2.78299e-015
rhumerus -40.0362 -1.57467 -73.5889
rradius 27.3346
rwrist -9.83466
rhand -21.4308 -21.7253
rfingers 7.12502
rthumb 4.95836 -51.6473
lclavicle 2.45996e-015 2.78299e-015
lhumerus -35.3295 6.38868 70.7114
lradius 29.0134
lwrist 37.6694
lhand -22.5569 -6.7369
lfingers 7.12502
lthumb 3.87099 23.2077
rfemur -28.6917 8.97783 13.1211
rtibia 27.2704
rfoot -10.9161 -17.8461
rtoes -18.4403
lfemur -27.5024 -4.5404 -3.99782
ltibia 23.1849
lfoot -11.8772 3.66808
ltoes -33.5233
2047
root 4.23177 15.9222 4.40426 -817.116 -94.869 835.782
lowerback -12.2919 -0.0522739 3.85289
upperback -7.17558 -0.855636 2.36993
thorax -0.639932 -0.660822 0.200703
lowerneck -17.6369 10.1543 12.9981
upperneck 21.5252 13.5462 -12.1307
head 11.7346 5.78588 -4.40475
rclavicle 1.33124e-014 -1.31198e-014
rhumerus -40.3055 -2.14334 -72.9337
rradius 27.6463
rwrist -9.93828
rhand -21.6809 -21.7523
rfingers 7.12502
rthumb 4.71694 -51.6798
lclavicle 1.33124e-014 -1.31198e-014
lhumerus -34.4712 6.4609 71.2876
lradius 28.0702
lwrist 37.7913
lhand -23.4541 -6.79605
lfingers 7.12502
lthumb 3.00453 23.1625
rfemur -28.5292 8.68984 12.8394
rtibia 27.3654
rfoot -10.8447 -17.9874
rtoes -18.8189
lfemur -27.9061 -4.57662 -4.3493
ltibia 23.5857
lfoot -12.0971 3.17142
ltoes -33.4879
2048
root 4.24326 15.9164 4.48141 -822.66 -95.0039 841.245
lowerback -12.1181 -0.308153 2.9699
upperback -7.07883 -1.08453 2.38752
thorax -0.61728 -0.741484 0.688275
lowerneck -17.8148 9.97875 12.8716
upperneck 21.4178 13.2484 -11.9397
head 11.6575 5.66154 -4.36141
rclavicle -6.41081e-015 1.5704e-014
rhumerus -40.5593 -2.73435 -72.2723
rradius 27.9505
rwrist -10.0816
rhand -22.0082 -21.8413
rfingers 7.12502
rthumb 4.40089 -51.7756
lclavicle -6.41081e-015 1.5704e-014
lhumerus -33.5694 6.55319 71.9015
lradius 27.1041
lwrist 37.8604
lhand -24.3277 -6.78596
lfingers 7.12502
lthumb 2.16089 23.1828
rfemur -28.4002 8.38151 12.5045
rtibia 27.5399
rfoot -10.7957 -18.1482
rtoes -19.1466
lfemur -28.3789 -4.65 -4.75157
ltibia 24.0547
lfoot -12.2634 2.62947
ltoes -33.3309
2049
root 4.25708 15.9103 4.5589 -828.459 -95.1708 846.949
lowerback -11.8959 -0.567654 2.0558
upperback -6.96487 -1.31531 2.40296
thorax -0.597102 -0.822478 1.19264
lowerneck -18.03 9.78771 12.7249
upperneck 21.2949 12.9336 -11.7619
head 11.5803 5.52531 -4.32144
rclavicle -6.4605e-016 -9.14409e-015
rhumerus -40.8007 -3.36161 -71.5813
rradius 28.2355
rwrist -10.2293
rhand -22.3002 -21.8936
rfingers 7.12502
rthumb 4.11886 -51.8335
lclavicle -6.4605e-016 -9.14409e-015
lhumerus -32.6181 6.70946 72.528
lradius 26.1153
lwrist 37.8067
lhand -25.1087 -6.67
lfingers 7.12502
lthumb 1.40657 23.3051
rfemur -28.2912 8.05705 12.1272
rtibia 27.7994
rfoot -10.7796 -18.3244
rtoes -19.4059
lfemur -28.878 -4.79615 -5.18297
ltibia 24.5534
lfoot -12.3833 2.07952
ltoes -33.0907
2050
root 4.27296 15.9038 4.63608 -834.33 -95.3795 852.713
lowerback -11.6241 -0.823974 1.11624
upperback -6.84254 -1.54142 2.41207
thorax -0.589458 -0.901233 1.70757
lowerneck -18.2557 9.57648 12.5304
upperneck 21.1504 12.5962 -11.5607
head 11.4898 5.37784 -4.26845
rclavicle -1.62739e-014 1.799e-014
rhumerus -41.0604 -3.96871 -70.9048
rradius 28.53
rwrist -10.4439
rhand -22.5897 -21.9556
rfingers 7.12502
rthumb 3.83928 -51.9008
lclavicle -1.62739e-014 1.799e-014
lhumerus -31.6436 6.8991 73.1602
lradius 25.1426
lwrist 37.6177
lhand -25.774 -6.43358
lfingers 7.12502
lthumb 0.76401 23.5448
rfemur -28.2022 7.71933 11.7132
rtibia 28.1393
rfoot -10.7883 -18.5026
rtoes -19.6204
lfemur -29.3705 -5.00322 -5.63583
ltibia 25.0411
lfoot -12.4728 1.52596
ltoes -32.7913
2051
root 4.28983 15.8974 4.71301 -839.957 -95.6465 858.22
lowerback -11.316 -1.05979 0.189814
upperback -6.71101 -1.74565 2.41003
thorax -0.588366 -0.970398 2.20821
lowerneck -18.4909 9.33819 12.2804
upperneck 20.9921 12.227 -11.3241
head 11.3867 5.21564 -4.19855
rclavicle -8.47164e-015 -7.95139e-015
rhumerus -41.3495 -4.60832 -70.2283
rradius 28.8269
rwrist -10.7171
rhand -22.895 -22.0196
rfingers 7.12502
rthumb 3.54453 -51.9698
lclavicle -8.47164e-015 -7.95139e-015
lhumerus -30.6441 7.10372 73.7929
lradius 24.2002
lwrist 37.2657
lhand -26.2998 -6.06725
lfingers 7.12502
lthumb 0.256211 23.9123
rfemur -28.1144 7.36861 11.2876
rtibia 28.5301
rfoot -10.7992 -18.661
rtoes -19.8283
lfemur -29.8264 -5.25054 -6.0922
ltibia 25.4911
lfoot -12.5439 0.974498
ltoes -32.4309
2052
root 4.30811 15.8919 4.78881 -845.005 -95.9858 863.154
lowerback -10.9813 -1.27164 -0.698325
upperback -6.58295 -1.92767 2.40603
thorax -0.603335 -1.03064 2.69005
lowerneck -18.7009 9.07382 11.9657
upperneck 20.8053 11.8317 -11.0461
head 11.2596 5.04274 -4.10764
rclavicle 8.97106e-015 2.50966e-015
rhumerus -41.6807 -5.251 -69.5635
rradius 29.1327
rwrist -11.0418
rhand -23.1761 -22.0778
rfingers 7.12502
rthumb 3.27308 -52.0324
lclavicle 8.97106e-015 2.50966e-015
lhumerus -29.6441 7.31384 74.4229
lradius 23.3173
lwrist 36.7452
lhand -26.6649 -5.572
lfingers 7.12502
lthumb -0.0964591 24.4077
rfemur -28.0286 7.04593 10.8729
rtibia 28.9302
rfoot -10.7955 -18.8154
rtoes -19.991
lfemur -30.2581 -5.48893 -6.52672
ltibia 25.8933
lfoot -12.6033 0.407649
ltoes -32.041
2053
root 4.32682 15.8879 4.86413 -849.141 -96.3944 867.181
lowerback -10.6279 -1.44977 -1.50892
upperback -6.46429 -2.07894 2.40668
thorax -0.638902 -1.07846 3.13856
lowerneck -18.8742 8.78778 11.5897
upperneck 20.6027 11.4185 -10.7264
head 11.1137 4.86312 -3.99515
rclavicle -2.7907e-014 9.72802e-015
rhumerus -42.068 -5.89517 -68.9142
rradius 29.4555
rwrist -11.4127
rhand -23.4631 -22.1585
rfingers 7.12502
rthumb 2.99586 -52.1173
lclavicle -2.7907e-014 9.72802e-015
lhumerus -28.669 7.48106 75.0654
lradius 22.5252
lwrist 36.0937
lhand -26.882 -4.96417
lfingers 7.12502
lthumb -0.306139 25.0154
rfemur -27.9212 6.75194 10.5031
rtibia 29.2896
rfoot -10.7372 -18.9499
rtoes -20.1727
lfemur -30.6625 -5.70456 -6.91491
ltibia 26.2617
lfoot -12.6633 -0.154422
ltoes -31.6259
2054
root 4.34556 15.886 4.93891 -852.147 -96.8649 870.093
lowerback -10.2727 -1.58723 -2.20872
upperback -6.36008 -2.19309 2.42239
thorax -0.693754 -1.11117 3.54583
lowerneck -19.0075 8.48517 11.1623
upperneck 20.3957 10.9976 -10.3813
head 10.9568 4.67997 -3.86719
rclavicle 2.41217e-014 -1.0635e-014
rhumerus -42.5078 -6.55002 -68.266
rradius 29.7836
rwrist -11.7974
rhand -23.7289 -22.2519
rfingers 7.12502
rthumb 2.7392 -52.2141
lclavicle 2.41217e-014 -1.0635e-014
lhumerus -27.7357 7.56525 75.7378
lradius 21.8492
lwrist 35.3611
lhand -26.9789 -4.2763
lfingers 7.12502
lthumb -0.399754 25.7031
rfemur -27.7884 6.51406 10.21
rtibia 29.5694
rfoot -10.5921 -19.0818
rtoes -20.3686
lfemur -31.0579 -5.86906 -7.22689
ltibia 26.621
lfoot -12.7386 -0.708266
ltoes -31.1812
2055
root 4.36429 15.8859 5.01454 -854.077 -97.3919 871.944
lowerback -9.92569 -1.68612 -2.77015
upperback -6.27057 -2.27395 2.46596
thorax -0.764083 -1.13099 3.90857
lowerneck -19.1099 8.17335 10.7029
upperneck 20.193 10.5836 -10.0514
head 10.8004 4.49608 -3.7391
rclavicle -2.9445e-015 -1.10325e-014
rhumerus -42.9853 -7.20777 -67.5964
rradius 30.1063
rwrist -12.1695
rhand -23.9277 -22.3184
rfingers 7.12502
rthumb 2.54723 -52.2829
lclavicle -2.9445e-015 -1.10325e-014
lhumerus -26.8505 7.55808 76.461
lradius 21.2964
lwrist 34.5965
lhand -26.966 -3.56098
lfingers 7.12502
lthumb -0.387231 26.4184
rfemur -27.6273 6.32957 10.0075
rtibia 29.7468
rfoot -10.3545 -19.2118
rtoes -20.5159
lfemur -31.4657 -6.00385 -7.44349
ltibia 26.9959
lfoot -12.8314 -1.2245
ltoes -30.7219
